<?xml version="1.0" encoding="utf-8"?>
<!-- Generator: Adobe Illustrator 22.1.0, SVG Export Plug-In . SVG Version: 6.00 Build 0)  -->
<svg version="1.1" id="Слой_1" xmlns="http://www.w3.org/2000/svg" xmlns:xlink="http://www.w3.org/1999/xlink" x="0px" y="0px"
	 viewBox="0 0 32 32" style="enable-background:new 0 0 32 32;" xml:space="preserve">
<style type="text/css">
	.st0{fill-rule:evenodd;clip-rule:evenodd;fill:#1D1E1B;}
	.st1{fill:#1D1E1B;}
</style>
<g>
	<path class="st0" d="M8.8,22.6c1.4,0,2.5,1.1,2.5,2.6s-1.1,2.6-2.5,2.6s-2.5-1.1-2.5-2.6S7.4,22.6,8.8,22.6z"/>
</g>
<g>
	<path class="st0" d="M18.1,22.6c1.4,0,2.5,1.1,2.5,2.6s-1.1,2.6-2.5,2.6s-2.5-1.1-2.5-2.6S16.7,22.6,18.1,22.6z"/>
</g>
<g>
	<path class="st0" d="M27.4,9c-0.6-0.6-1.5-0.7-2.2-0.1L22.8,11H4c0,3.5,0.1,10,6,10h6.9c1.9,0,3.6-0.9,4.6-2.5
		c1.2-1.7,1.9-3.1,2.4-4.5l3.3-2.9C27.9,10.6,27.9,9.6,27.4,9z M19.5,17.1c-0.6,0.9-1.5,1.4-2.6,1.4H10c-1.9,0-3.1-0.9-3.4-5h14.9
		C21,14.6,20.4,15.7,19.5,17.1z"/>
</g>
</svg>
