<?xml version="1.0" encoding="utf-8"?>
<!-- Generator: Adobe Illustrator 22.1.0, SVG Export Plug-In . SVG Version: 6.00 Build 0)  -->
<svg version="1.1" id="Слой_1" xmlns="http://www.w3.org/2000/svg" xmlns:xlink="http://www.w3.org/1999/xlink" x="0px" y="0px"
	 viewBox="0 0 32 32" style="enable-background:new 0 0 32 32;" xml:space="preserve">
<style type="text/css">
	.st0{fill-rule:evenodd;clip-rule:evenodd;fill:#1D1E1B;}
	.st1{fill:#1D1E1B;}
</style>
<g>
	<g>
		<path class="st1" d="M10,8v2H8V8H10 M12,6H6v6h6V6L12,6z"/>
	</g>
	<g>
		<path class="st1" d="M10,15v2H8v-2H10 M12,13H6v6h6V13L12,13z"/>
	</g>
	<g>
		<path class="st1" d="M10,22v2H8v-2H10 M12,20H6v6h6V20L12,20z"/>
	</g>
	<g>
		<path class="st1" d="M17,8v2h-2V8H17 M19,6h-6v6h6V6L19,6z"/>
	</g>
	<g>
		<path class="st1" d="M17,15v2h-2v-2H17 M19,13h-6v6h6V13L19,13z"/>
	</g>
	<g>
		<path class="st1" d="M17,22v2h-2v-2H17 M19,20h-6v6h6V20L19,20z"/>
	</g>
	<g>
		<path class="st1" d="M24,8v2h-2V8H24 M26,6h-6v6h6V6L26,6z"/>
	</g>
	<g>
		<path class="st1" d="M24,15v2h-2v-2H24 M26,13h-6v6h6V13L26,13z"/>
	</g>
	<g>
		<path class="st1" d="M24,22v2h-2v-2H24 M26,20h-6v6h6V20L26,20z"/>
	</g>
</g>
</svg>
