<?xml version="1.0" encoding="utf-8"?>
<!-- Generator: Adobe Illustrator 22.1.0, SVG Export Plug-In . SVG Version: 6.00 Build 0)  -->
<svg version="1.1" id="Слой_1" xmlns="http://www.w3.org/2000/svg" xmlns:xlink="http://www.w3.org/1999/xlink" x="0px" y="0px"
	 viewBox="0 0 32 32" style="enable-background:new 0 0 32 32;" xml:space="preserve">
<style type="text/css">
	.st0{fill-rule:evenodd;clip-rule:evenodd;fill:#1D1E1B;}
	.st1{fill:#1D1E1B;}
</style>
<g>
	<g>
		<path class="st1" d="M25.8,24H8.7c-1.4,0-2.5-1.1-2.5-2.5V11c0-1.4,1.1-2.5,2.5-2.5h17.1c1.4,0,2.5,1.1,2.5,2.5v10.6
			C28.3,22.9,27.2,24,25.8,24z M8.7,10.4c-0.3,0-0.5,0.2-0.5,0.5v10.6c0,0.3,0.2,0.5,0.5,0.5h17.1c0.3,0,0.5-0.2,0.5-0.5V11
			c0-0.3-0.2-0.5-0.5-0.5H8.7z"/>
	</g>
</g>
<g>
	<path class="st1" d="M22.3,27.1H5.2c-1.4,0-2.5-1.1-2.5-2.5V14c0-1.4,1.1-2.5,2.5-2.5h3v10.1c0,0.3,0.2,0.5,0.5,0.5h16.1v2.5
		C24.8,25.9,23.7,27.1,22.3,27.1z M5.2,13.5c-0.3,0-0.5,0.2-0.5,0.5v10.6c0,0.3,0.2,0.5,0.5,0.5h17.1c0.3,0,0.5-0.2,0.5-0.5V24H8.7
		c-1.4,0-2.5-1.1-2.5-2.5v-8.1H5.2z"/>
</g>
<g>
	<g>
		<path class="st0" d="M7.2,11.5h20.1v3.1H7.2V11.5z"/>
	</g>
</g>
</svg>
