<?xml version="1.0" encoding="utf-8"?>
<!-- Generator: Adobe Illustrator 22.1.0, SVG Export Plug-In . SVG Version: 6.00 Build 0)  -->
<svg version="1.1" id="Слой_1" xmlns="http://www.w3.org/2000/svg" xmlns:xlink="http://www.w3.org/1999/xlink" x="0px" y="0px"
	 viewBox="0 0 32 32" style="enable-background:new 0 0 32 32;" xml:space="preserve">
<style type="text/css">
	.st0{fill:#1D1E1B;}
</style>
<path class="st0" d="M25.1,11.5h-5.5c0-2.1,0-4.4,0-4.4H2.8v9.4v2v5.8H7v0c0.5,1.4,1.8,2.4,3.3,2.4c1.6,0,2.9-1,3.3-2.4c0,0,0,0,0,0
	h4h2h0.7c0,0,0,0,0,0c0.5,1.4,1.8,2.4,3.3,2.4c1.5,0,2.8-1,3.3-2.4c0,0,0,0,0,0h2.2v-5.7C29.1,15.7,27,11.5,25.1,11.5z M4.8,9.1
	h12.8v7.4H4.8V9.1z M10.3,24.7c-0.8,0-1.5-0.7-1.5-1.5s0.7-1.5,1.5-1.5s1.5,0.7,1.5,1.5S11.1,24.7,10.3,24.7z M13.7,22.3
	C13.7,22.3,13.7,22.3,13.7,22.3c-0.4-1.5-1.8-2.6-3.4-2.6c-1.6,0-3,1.1-3.4,2.6h-2v-3.8h12.7v3.8H13.7z M23.6,24.7
	c-0.8,0-1.5-0.7-1.5-1.5s0.7-1.5,1.5-1.5c0.8,0,1.5,0.7,1.5,1.5S24.4,24.7,23.6,24.7z M27.3,22.3H27c-0.4-1.5-1.8-2.6-3.4-2.6
	c-1.6,0-3,1.1-3.4,2.6h-0.4v-8.8h5.4c0.6,0.4,2.1,3,2.1,5.1V22.3z"/>
</svg>
