<?xml version="1.0" encoding="utf-8"?>
<!-- Generator: Adobe Illustrator 22.1.0, SVG Export Plug-In . SVG Version: 6.00 Build 0)  -->
<svg version="1.1" id="Слой_1" xmlns="http://www.w3.org/2000/svg" xmlns:xlink="http://www.w3.org/1999/xlink" x="0px" y="0px"
	 viewBox="0 0 32 32" style="enable-background:new 0 0 32 32;" xml:space="preserve">
<style type="text/css">
	.st0{fill-rule:evenodd;clip-rule:evenodd;fill:#1D1E1B;}
	.st1{fill:#1D1E1B;}
</style>
<g>
	<g>
		<path class="st1" d="M19.9,9.9h-7.7c-1.2,0-2.2,1-2.2,2.2v7.7c0,1.2,1,2.2,2.2,2.2h7.7c1.2,0,2.2-1,2.2-2.2v-7.7
			C22.1,10.9,21.1,9.9,19.9,9.9z M16,20.1c-2.2,0-4-1.8-4-4c0-2.2,1.8-4,4-4c2.2,0,4,1.8,4,4S18.2,20.1,16,20.1z M20.2,12.8
			c-0.5,0-1-0.4-1-1c0-0.5,0.4-1,1-1c0.5,0,1,0.4,1,1S20.7,12.8,20.2,12.8z"/>
	</g>
	<g>
		<path class="st1" d="M16,13.7c-1.3,0-2.3,1-2.3,2.3c0,1.3,1,2.3,2.3,2.3c1.3,0,2.3-1,2.3-2.3C18.3,14.8,17.3,13.7,16,13.7z"/>
	</g>
	<g>
		<path class="st1" d="M16,3C8.8,3,3,8.8,3,16s5.8,13,13,13s13-5.8,13-13S23.2,3,16,3z M23.8,19.9c0,2.2-1.8,3.9-3.9,3.9h-7.7
			c-2.2,0-3.9-1.8-3.9-3.9v-7.7c0-2.2,1.8-3.9,3.9-3.9h7.7c2.2,0,3.9,1.8,3.9,3.9V19.9z"/>
	</g>
</g>
</svg>
