<?xml version="1.0" encoding="utf-8"?>
<!-- Generator: Adobe Illustrator 22.1.0, SVG Export Plug-In . SVG Version: 6.00 Build 0)  -->
<svg version="1.1" id="Слой_1" xmlns="http://www.w3.org/2000/svg" xmlns:xlink="http://www.w3.org/1999/xlink" x="0px" y="0px"
	 viewBox="0 0 32 32" style="enable-background:new 0 0 32 32;" xml:space="preserve">
<style type="text/css">
	.st0{fill-rule:evenodd;clip-rule:evenodd;fill:#1D1E1B;}
	.st1{fill:#1D1E1B;}
</style>
<g>
	<g>
		<path class="st0" d="M19.4,6.6C15.9,3,10.2,3,6.6,6.6c-3.5,3.6-3.5,9.4,0,13c3.5,3.6,9.2,3.6,12.8,0C22.9,16,22.9,10.2,19.4,6.6z
			 M17.3,17.4c-2.4,2.4-6.2,2.4-8.5,0c-2.4-2.4-2.4-6.3,0-8.7c2.4-2.4,6.2-2.4,8.5,0C19.6,11.2,19.6,15,17.3,17.4z"/>
	</g>
	<g>
		<path class="st0" d="M18.2,17.8c0.7-0.8,1.9-0.8,2.7,0l6.6,6.8c0.7,0.8,0.7,2,0,2.7c-0.7,0.8-1.9,0.8-2.7,0l-6.6-6.8
			C17.4,19.7,17.4,18.5,18.2,17.8z"/>
	</g>
</g>
</svg>
