<?xml version="1.0" encoding="utf-8"?>
<!-- Generator: Adobe Illustrator 22.1.0, SVG Export Plug-In . SVG Version: 6.00 Build 0)  -->
<svg version="1.1" id="Слой_1" xmlns="http://www.w3.org/2000/svg" xmlns:xlink="http://www.w3.org/1999/xlink" x="0px" y="0px"
	 viewBox="0 0 32 32" style="enable-background:new 0 0 32 32;" xml:space="preserve">
<style type="text/css">
	.st0{fill-rule:evenodd;clip-rule:evenodd;fill:#1D1E1B;}
	.st1{fill:#1D1E1B;}
</style>
<g>
	<path class="st1" d="M16,3C8.8,3,3,8.8,3,16c0,7.2,5.8,13,13,13c7.2,0,13-5.8,13-13C29,8.8,23.2,3,16,3z M23.4,21.7l-2.3,0
		c0,0-0.5,0.1-1.1-0.3c-0.9-0.6-1.7-2.1-2.3-1.9c-0.6,0.2-0.6,1.6-0.6,1.6s0,0.3-0.1,0.4c-0.2,0.2-0.5,0.2-0.5,0.2h-1
		c0,0-2.3,0.1-4.2-1.9c-2.2-2.3-4.1-6.7-4.1-6.7s-0.1-0.3,0-0.4c0.1-0.2,0.5-0.2,0.5-0.2l2.4,0c0,0,0.2,0,0.4,0.2
		c0.1,0.1,0.2,0.3,0.2,0.3s0.4,1,0.9,1.9c1,1.8,1.5,2.1,1.8,2c0.5-0.3,0.4-2.5,0.4-2.5s0-0.8-0.3-1.2c-0.2-0.3-0.6-0.4-0.8-0.4
		c-0.1,0,0.1-0.3,0.4-0.5c0.4-0.2,1.2-0.2,2.1-0.2c0.7,0,0.9,0.1,1.2,0.1c0.8,0.2,0.6,1,0.6,2.9c0,0.6-0.1,1.4,0.3,1.7
		c0.2,0.1,0.6,0,1.8-1.9c0.5-0.9,0.9-2,0.9-2s0.1-0.2,0.2-0.3c0.1-0.1,0.3-0.1,0.3-0.1l2.6,0c0,0,0.8-0.1,0.9,0.3
		c0.1,0.4-0.3,1.2-1.3,2.6c-1.7,2.3-1.9,2.1-0.5,3.4c1.4,1.3,1.6,1.9,1.7,2C24.6,21.6,23.4,21.7,23.4,21.7z"/>
</g>
</svg>
